#!OML:ASF F:\VICON\USERDATA\INSTALL\rory3\rory3.ASF
:FULLY-SPECIFIED
:DEGREES
220
root -2.08121 18.3762 -1.45455 -163.919 -0.459708 -171.778
lowerback 2.33745 0.198767 4.88085
upperback -7.02696 1.5675 3.85714
thorax -8.74161 0.878595 1.15364
lowerneck -15.2285 2.1652 -1.81734
upperneck 37.9647 -0.925592 1.6244
head 16.0838 -1.81233 0.465193
rclavicle 3.93842e-015 1.59028e-015
rhumerus -3.41734 -73.9275 -3.49936
rradius 14.6132
rwrist 60.4614
rhand -17.1773 9.65894
rfingers 7.12502
rthumb 9.0643 -20.1263
lclavicle 3.93842e-015 1.59028e-015
lhumerus -2.02733 13.8629 0.341229
lradius 16.5954
lwrist -46.7033
lhand -27.5569 19.6244
lfingers 7.12502
lthumb -0.957918 49.602
rfemur -89.5576 -54.3831 43.9493
rtibia 121.007
rfoot 34.5941 -51.2787
rtoes 54.7725
lfemur -29.2939 0.831234 -20.0904
ltibia 38.5255
lfoot -16.5977 27.4045
ltoes 31.2329
221
root -2.05644 18.3254 -1.47993 -163.926 -0.181983 -172.276
lowerback 3.25924 0.206512 4.15186
upperback -6.68733 1.46292 3.70273
thorax -8.91329 0.828102 1.40035
lowerneck -15.6172 -2.18308 -0.34843
upperneck 37.4539 0.972776 -0.462201
head 15.92 1.61184 0.412251
rclavicle 5.71506e-015 -4.73108e-014
rhumerus -7.39892 -74.2119 -0.69763
rradius 14.5725
rwrist 61.7815
rhand -17.4996 11.252
rfingers 7.12502
rthumb 8.75325 -18.5465
lclavicle 5.71506e-015 -4.73108e-014
lhumerus -3.5761 16.1551 0.619286
lradius 16.1941
lwrist -48.9832
lhand -25.8501 20.4331
lfingers 7.12502
lthumb 0.690523 50.4117
rfemur -88.673 -50.4475 43.1474
rtibia 119.04
rfoot 33.7879 -51.0505
rtoes 54.1141
lfemur -29.2373 1.28352 -20.8169
ltibia 38.9104
lfoot -14.267 27.6756
ltoes 24.5735
222
root -2.03615 18.2683 -1.51112 -163.99 0.00243298 -172.631
lowerback 4.17777 0.164542 3.70661
upperback -6.37241 1.31923 3.54922
thorax -9.10909 0.745376 1.49731
lowerneck -15.7222 -1.91885 -0.0163579
upperneck 36.6512 1.01082 -0.534313
head 15.5418 1.57822 0.295075
rclavicle -5.1684e-015 1.66979e-014
rhumerus -11.4428 -73.6758 1.96147
rradius 14.5322
rwrist 62.0113
rhand -18.2381 12.9454
rfingers 7.12502
rthumb 8.04054 -16.8816
lclavicle -5.1684e-015 1.66979e-014
lhumerus -5.4374 17.1354 0.665809
lradius 15.8812
lwrist -50.5949
lhand -24.3455 21.2306
lfingers 7.12502
lthumb 2.14368 51.1996
rfemur -87.4103 -46.723 42.1468
rtibia 116.876
rfoot 32.1737 -50.9542
rtoes 53.9475
lfemur -29.0344 1.52357 -21.3501
ltibia 39.3538
lfoot -13.0271 27.2675
ltoes 18.3559
223
root -2.01969 18.2105 -1.56331 -164.164 0.142192 -172.602
lowerback 4.86143 0.135287 3.70394
upperback -5.85798 1.21686 3.49909
thorax -8.94504 0.66487 1.45314
lowerneck -16.1637 -1.63264 0.333342
upperneck 35.8821 1.06237 -0.638763
head 15.2704 1.5354 0.166434
rclavicle 5.01931e-015 3.27995e-014
rhumerus -15.4603 -73.7977 4.58272
rradius 14.3577
rwrist 62.4579
rhand -19.2038 14.8106
rfingers 7.12502
rthumb 7.10847 -15.05
lclavicle 5.01931e-015 3.27995e-014
lhumerus -7.45979 16.3293 0.83607
lradius 15.7131
lwrist -50.4197
lhand -22.8098 22.2861
lfingers 7.12502
lthumb 3.62674 52.235
rfemur -85.3882 -43.1172 41.0944
rtibia 114.331
rfoot 30.0754 -50.1597
rtoes 54.1361
lfemur -28.674 1.74876 -21.4557
ltibia 39.8517
lfoot -11.3144 27.0601
ltoes 9.27785
224
root -2.00127 18.1416 -1.61807 -164.17 0.423851 -172.724
lowerback 5.43089 0.157048 3.5146
upperback -5.44859 1.17211 3.39361
thorax -8.8304 0.627143 1.44922
lowerneck -16.7123 -1.4016 0.645301
upperneck 35.3485 1.10174 -0.733723
head 15.1433 1.5016 0.0567167
rclavicle -3.15571e-015 1.78906e-015
rhumerus -18.9141 -72.8951 6.52633
rradius 14.1694
rwrist 61.5479
rhand -20.3646 16.3673
rfingers 7.12502
rthumb 5.98778 -13.5281
lclavicle -3.15571e-015 1.78906e-015
lhumerus -9.61388 14.9199 1.26762
lradius 15.7047
lwrist -49.5593
lhand -21.6067 22.7851
lfingers 7.12502
lthumb 4.78855 52.711
rfemur -83.8022 -39.2767 39.9827
rtibia 111.601
rfoot 32.8458 -46.8429
rtoes 52.1604
lfemur -28.5332 2.11971 -21.7939
ltibia 40.3795
lfoot -9.40817 26.6265
ltoes -1.70971
225
root -1.98387 18.0583 -1.66668 -164.043 0.78684 -173.177
lowerback 5.90148 0.195632 2.99794
upperback -5.03625 1.10032 3.21149
thorax -8.6564 0.592095 1.55208
lowerneck -17.2597 -1.12745 0.814103
upperneck 34.6863 1.21739 -0.800533
head 14.9586 1.47658 -0.00430816
rclavicle 2.21148e-015 3.77691e-015
rhumerus -19.7999 -68.8475 5.61241
rradius 14.1562
rwrist 56.8797
rhand -21.3875 17.4072
rfingers 7.12502
rthumb 5.00017 -12.5138
lclavicle 2.21148e-015 3.77691e-015
lhumerus -11.7503 15.9999 1.76656
lradius 15.397
lwrist -51.0518
lhand -21.0072 22.2296
lfingers 7.12502
lthumb 5.36743 52.1416
rfemur -82.7751 -35.579 38.6513
rtibia 108.817
rfoot 36.7608 -43.1386
rtoes 49.4647
lfemur -28.5259 2.22363 -22.4713
ltibia 40.9486
lfoot -9.58706 26.5947
ltoes -8.18971
226
root -1.96838 17.9724 -1.7211 -163.823 0.998793 -173.566
lowerback 6.17183 0.175988 2.6342
upperback -4.63218 0.967164 3.03779
thorax -8.3731 0.522733 1.58746
lowerneck -17.6676 -0.815367 1.00974
upperneck 33.8084 1.37901 -0.940951
head 14.6478 1.45798 -0.0950233
rclavicle 4.47266e-015 -2.72335e-014
rhumerus -21.954 -67.0633 5.95011
rradius 14.1233
rwrist 54.3262
rhand -22.2993 19.4347
rfingers 7.12502
rthumb 4.11971 -10.5052
lclavicle 4.47266e-015 -2.72335e-014
lhumerus -13.8992 18.4108 2.12733
lradius 14.9387
lwrist -54.1561
lhand -20.0836 21.7566
lfingers 7.12502
lthumb 6.25914 51.6441
rfemur -81.9057 -32.247 37.4787
rtibia 105.817
rfoot 41.1 -37.7907
rtoes 45.922
lfemur -28.5551 2.32626 -23.0686
ltibia 41.4929
lfoot -11.0017 25.9416
ltoes -10.6511
227
root -1.94606 17.8827 -1.77395 -163.461 1.02985 -173.543
lowerback 6.63915 0.044914 2.61917
upperback -4.76049 0.812848 3.00203
thorax -8.78567 0.4436 1.58079
lowerneck -16.9406 -0.608408 1.36382
upperneck 32.8894 1.519 -1.20133
head 14.0743 1.48807 -0.259305
rclavicle -1.08089e-014 -3.37934e-015
rhumerus -24.3242 -65.6295 6.50767
rradius 14.0028
rwrist 52.9101
rhand -23.0487 21.0453
rfingers 7.12502
rthumb 3.39604 -8.90742
lclavicle -1.08089e-014 -3.37934e-015
lhumerus -16.373 18.8242 2.38162
lradius 14.6253
lwrist -56.4683
lhand -19.0225 21.5648
lfingers 7.12502
lthumb 7.28341 51.4194
rfemur -81.1895 -28.9694 36.9605
rtibia 102.474
rfoot 44.2232 -31.6683
rtoes 40.8941
lfemur -28.8356 2.52592 -23.1559
ltibia 42.0522
lfoot -11.9109 25.0709
ltoes -15.4029
228
root -1.93438 17.7969 -1.85851 -163.401 1.35684 -173.201
lowerback 6.6778 0.124054 2.95847
upperback -3.97784 0.876055 2.97554
thorax -7.95502 0.442291 1.34679
lowerneck -18.4335 -0.34098 1.71825
upperneck 32.2748 1.49852 -1.36049
head 14.1369 1.38412 -0.407881
rclavicle -6.95746e-015 5.26779e-015
rhumerus -26.3511 -64.65 6.46318
rradius 13.9767
rwrist 50.3331
rhand -23.447 21.4643
rfingers 7.12502
rthumb 3.01143 -8.49414
lclavicle -6.95746e-015 5.26779e-015
lhumerus -18.327 17.6601 3.64265
lradius 14.5543
lwrist -55.5705
lhand -18.3072 21.5244
lfingers 7.12502
lthumb 7.97382 51.354
rfemur -79.8125 -25.7578 36.4403
rtibia 98.6844
rfoot 46.8333 -24.117
rtoes 32.1626
lfemur -28.5188 2.77377 -22.9452
ltibia 42.5685
lfoot -13.5957 24.1956
ltoes -19.3468
229
root -1.92676 17.7106 -1.9406 -163.189 1.30661 -172.927
lowerback 6.64066 0.0638847 3.40547
upperback -3.356 0.788049 2.97943
thorax -7.26095 0.375567 1.10665
lowerneck -19.7204 -0.0590256 1.77632
upperneck 31.5499 1.56852 -1.36958
head 14.1035 1.31244 -0.427625
rclavicle -1.37286e-014 -3.18552e-014
rhumerus -27.3729 -62.7207 5.2635
rradius 13.986
rwrist 46.7738
rhand -23.6298 21.5508
rfingers 7.12502
rthumb 2.83489 -8.41007
lclavicle -1.37286e-014 -3.18552e-014
lhumerus -20.1037 15.6629 5.55767
lradius 14.5782
lwrist -54.0857
lhand -17.4246 21.6821
lfingers 7.12502
lthumb 8.82567 51.4776
rfemur -78.8366 -23.1972 36.1386
rtibia 94.7315
rfoot 47.8535 -18.5657
rtoes 24.5152
lfemur -28.432 2.87326 -22.7516
ltibia 43.1113
lfoot -15.297 23.5857
ltoes -18.0025
230
root -1.91684 17.6151 -2.01727 -162.968 1.445 -172.905
lowerback 6.78361 0.012329 3.45967
upperback -2.97576 0.695554 2.94414
thorax -6.93648 0.324548 1.048
lowerneck -19.9178 0.0366693 1.47262
upperneck 30.408 1.42878 -1.01964
head 13.6432 1.18144 -0.280679
rclavicle -1.01629e-014 -4.25896e-014
rhumerus -29.9157 -63.2923 5.88544
rradius 13.7623
rwrist 46.254
rhand -23.8059 21.6875
rfingers 7.12502
rthumb 2.66482 -8.27561
lclavicle -1.01629e-014 -4.25896e-014
lhumerus -22.006 16.1063 6.89487
lradius 14.1669
lwrist -55.5237
lhand -16.4374 21.4725
lfingers 7.12502
lthumb 9.77815 51.2255
rfemur -78.0792 -20.7052 35.5318
rtibia 90.8282
rfoot 47.8706 -16.2358
rtoes 21.6707
lfemur -28.453 3.08489 -22.8929
ltibia 43.6259
lfoot -15.5681 23.7864
ltoes -19.9894
231
root -1.90602 17.5108 -2.1037 -162.763 1.81436 -172.442
lowerback 6.9907 0.0576141 3.85526
upperback -2.77783 0.801125 2.97507
thorax -6.84181 0.362316 0.843573
lowerneck -18.9438 0.0183804 0.704295
upperneck 28.57 1.15253 -0.190093
head 12.658 1.01506 0.0962879
rclavicle -1.90492e-014 -1.3741e-014
rhumerus -32.309 -63.1869 6.23189
rradius 13.4984
rwrist 45.6178
rhand -23.8365 21.2311
rfingers 7.12502
rthumb 2.63529 -8.73239
lclavicle -1.90492e-014 -1.3741e-014
lhumerus -23.7887 15.637 8.5351
lradius 13.9323
lwrist -56.0109
lhand -15.2502 21.6626
lfingers 7.12502
lthumb 10.9234 51.3584
rfemur -77.0949 -17.9034 35.2066
rtibia 86.8279
rfoot 47.1278 -15.3171
rtoes 21.0473
lfemur -28.3067 3.43402 -22.5856
ltibia 44.1164
lfoot -17.0863 23.5692
ltoes -20.206
232
root -1.89903 17.4033 -2.19295 -162.534 2.10157 -171.906
lowerback 6.93075 0.153966 4.43598
upperback -2.20247 0.957996 3.03057
thorax -6.18913 0.431052 0.553305
lowerneck -19.9652 0.323425 0.578027
upperneck 27.6565 1.3818 -0.145231
head 12.5001 1.02784 0.156322
rclavicle -1.23743e-014 2.68546e-014
rhumerus -36.6913 -65.0409 8.82845
rradius 13.1311
rwrist 46.5201
rhand -23.5848 20.8096
rfingers 7.12502
rthumb 2.87834 -9.15067
lclavicle -1.23743e-014 2.68546e-014
lhumerus -25.2229 16.5324 10.4067
lradius 13.7373
lwrist -57.2416
lhand -14.6605 21.4883
lfingers 7.12502
lthumb 11.4922 51.1533
rfemur -76.2199 -15.3568 35.0929
rtibia 82.7541
rfoot 46.2156 -12.5994
rtoes 16.8633
lfemur -28.0967 3.74505 -22.2091
ltibia 44.5719
lfoot -18.3981 23.552
ltoes -22.6766
233
root -1.89512 17.2967 -2.28327 -162.327 2.37056 -171.873
lowerback 6.8066 0.143936 4.59001
upperback -1.76946 0.909437 2.91758
thorax -5.65736 0.406875 0.353641
lowerneck -20.0314 0.606516 0.450656
upperneck 26.3606 1.56737 0.0782648
head 11.9979 1.06515 0.26997
rclavicle -5.85172e-015 -1.3418e-014
rhumerus -44.0332 -68.3004 14.5057
rradius 12.5836
rwrist 49.3791
rhand -23.0474 20.8408
rfingers 7.12502
rthumb 3.39736 -9.11192
lclavicle -5.85172e-015 -1.3418e-014
lhumerus -26.883 17.983 11.7752
lradius 13.3902
lwrist -59.7806
lhand -14.3274 20.7936
lfingers 7.12502
lthumb 11.8134 50.4404
rfemur -75.5434 -13.234 34.59
rtibia 78.6871
rfoot 45.0931 -14.4415
rtoes 19.0448
lfemur -27.9029 3.87771 -22.392
ltibia 44.9731
lfoot -21.0967 22.9608
ltoes -20.3523
234
root -1.88526 17.1824 -2.37678 -162.156 2.71765 -171.857
lowerback 6.65885 0.159272 4.61029
upperback -1.39611 0.878991 2.74613
thorax -5.17724 0.394023 0.166878
lowerneck -19.9051 0.813679 0.482389
upperneck 25.1381 1.61519 0.370117
head 11.4983 1.08061 0.359188
rclavicle -1.14301e-014 -2.99171e-014
rhumerus -49.5239 -69.6298 17.8412
rradius 12.0682
rwrist 50.0213
rhand -22.7277 19.9831
rfingers 7.12502
rthumb 3.70603 -9.96444
lclavicle -1.14301e-014 -2.99171e-014
lhumerus -28.3047 19.1235 13.2136
lradius 13.0445
lwrist -61.8628
lhand -13.4326 20.3532
lfingers 7.12502
lthumb 12.6762 49.9485
rfemur -74.7934 -10.9439 33.9103
rtibia 74.5782
rfoot 43.1832 -16.3127
rtoes 19.4423
lfemur -27.6506 4.07854 -22.5659
ltibia 45.2994
lfoot -23.1531 22.6312
ltoes -20.8092
